<?xml version="1.0" encoding="utf-8"?><svg viewBox="0 0 369.44 153" xmlns="http://www.w3.org/2000/svg" xmlns:xlink="http://www.w3.org/1999/xlink"><style>:root>svg{display:none}:root>svg:target{display:block}</style><svg viewBox="0 0 12 12" id="cross" xmlns="http://www.w3.org/2000/svg"><path d="M11.12 2a.4.4 0 010 .57L8 5.71a.4.4 0 000 .57l3.14 3.14a.4.4 0 010 .57L10 11.13a.41.41 0 01-.57 0L6.27 8a.41.41 0 00-.57 0l-3.14 3.12a.41.41 0 01-.57 0L.85 10a.4.4 0 010-.57L4 6.28a.4.4 0 000-.57L.85 2.57a.4.4 0 010-.57L2 .86a.41.41 0 01.57 0L5.7 4a.4.4 0 00.57 0L9.41.87a.41.41 0 01.57 0z"/></svg><svg viewBox="0 0 369.44 153" id="index-logo" xmlns="http://www.w3.org/2000/svg"><path d="M119.86 11.43C127 9 127.59 0 120.51 0c-1.95 0-4.28 1.37-5.88 4.17L105 20.73a13.83 13.83 0 01-1.37 2c-2.46-3.39-1.74-8.45 1.71-10.67L104 10.27c-7.46 4.75-5.27 18.48 7.18 18.48 10.6-.01 15.52-12.75 8.68-17.32zM111.07 26a10.23 10.23 0 01-5.13-1.23 18.43 18.43 0 001.78-2.53l6-10.37 1 .1C123 13.72 119.69 26 111.07 26zm3.83-16.21l2.87-4.93c2.6-4.48 5.92-1.85 4.14 1.5-1.37 2.57-3.39 3.36-7.01 3.43z" fill="#fff"/><path d="M259.21 19l-.24.27a16.74 16.74 0 01-6.5 5c.58-.92 1-1.92 1.47-2.67l3.93-6.74c3.32-5.64-2.05-7.53-5.68-4.28l.72-1.23h-3.56L243.79 19l-.24.27a7.66 7.66 0 01-5.37 2.63l3.35-5.78c2.16-3.73.17-7.25-3.18-7.25-2.74 0-4.86 1.09-6.91 4.65l-1.75 3-1.46 2.48-.19.22c-2.57 3-5.06 5.34-6.64 5.34-.79 0-1.23-.55-.41-2l5.13-9c1.54-2.7.07-4.65-1.92-4.65-1.54 0-3.18.85-5 2.7l5.68-9.89h-3.56L211.45 19l-.2.23A22.14 22.14 0 01207 23.1c1.13-3.39.89-8.59 3.08-13.14l-2.67-1.44c-1.47 2-4.69 6.67-7.9 10.43l-.24.27c-2.57 3-5.06 5.34-6.64 5.34-.79 0-1.23-.55-.41-2l3.56-6.23c1.23-2.16.65-3.42-.51-4.82l-2-2.39a1.39 1.39 0 01.09-2l.11-.09-1.85-2c-2 1.81-2.19 3.83-.92 5.47l.3.41c-1.57 2.22-3.69 5.23-6 8l-.24.27c-2.57 3-5.85 5.34-8.35 5.34-2.19 0-3.49-1.37-1.85-4.24l.34-.62c2.29 1 6.6.51 9.27-4.1l.51-.89c1.92-3.28.07-5.75-2.84-5.75a7.53 7.53 0 00-6.67 4.11L171.7 19l-.21.24a7.59 7.59 0 01-5.37 2.63l3.35-5.78a8.66 8.66 0 001.34-4.09A3 3 0 00168 8.82h-.41a4.14 4.14 0 00-2.33.79l4.52-7.83h-3.63L156.18 19l-.19.21c-2.57 3-5.06 5.34-6.64 5.34-.79 0-1.23-.55-.41-2l3.56-6.23c1.23-2.16.65-3.42-.51-4.82l-2-2.39a1.39 1.39 0 01.1-2l.11-.09-1.85-2c-2 1.81-2.19 3.83-.92 5.47l.31.41c-1.57 2.22-3.7 5.23-6 8l-.24.27c-2.57 3-5.06 5.34-6.64 5.34-.79 0-1.23-.55-.41-2l5.75-10.06h-2A3.7 3.7 0 00134.44 9c-1.92 0-4.58 1.51-6.09 4.11l-5 8.62c-1.51 2.64-.44 5.06 2.43 5.06 1.44 0 3.22-.92 4.93-2.33.17 1.37 1.27 2.33 3.08 2.33 2.94 0 6.33-3.15 9.27-6.57 1.71-2 3-3.76 5.88-7.63l.48.58a1.75 1.75 0 01.21 2l-3.76 6.53c-1.5 2.64-.44 5.06 2.43 5.06 2.06 0 4.34-1.55 6.54-3.65 0 2.43 1.81 3.8 4.11 3.8a7.87 7.87 0 006-3.3 6 6 0 00.79 0 10.44 10.44 0 004.72-1.4c-.19 2.57 1.68 4.52 4.82 4.52 4 0 8-3.15 11-6.57 1.71-2 3-3.76 5.88-7.63l.48.58a1.75 1.75 0 01.21 2l-3.76 6.53c-1.51 2.64-.44 5.06 2.43 5.06s6.33-3.15 9.27-6.57c2-2.33 3.8-4.82 5.06-6.5-1.4 3.7-.65 10.33-4 10.33a2 2 0 01-1.68-1.3L198 23.82a3.88 3.88 0 003.9 2.87 9.63 9.63 0 001-.07h.1a12.54 12.54 0 005.47-2.36l-1.22 2.12h3.59l5.4-9.41c5.48-6.88 7.9-6 6.36-3.35l-4.62 8c-1.51 2.63-.44 5.06 2.43 5.06 2.07 0 4.35-1.56 6.55-3.67 0 4.54 6.29 5.42 10.15.55h.79a9.8 9.8 0 003.81-.94l-6.48 11.24h3.59l10.64-18.51c4-5.41 6.47-3.42 5.54-1.81l-5.37 9.31a1.37 1.37 0 01-2.57 0l-2 1a3.88 3.88 0 003.9 2.87h.21c5.17-.1 8.55-3.18 11.46-6.57a2.25 2.25 0 00-1.42-1.15zm-81-5c2.05-3.52 5.68-2.94 3.56.75l-.51.89c-1.71 2.91-4 2.84-5.34 2.36zm-45.61 5.61c-2.16 3.39-4.28 5-5.75 5-.79 0-1.23-.55-.41-2l5-8.66c1.92-3.32 5.71-2.46 4 .75zm26.79 4.86a1.33 1.33 0 01-1.44-1.37 4 4 0 01.62-1.85l1.25-2.25a5.23 5.23 0 002.26 3.69 3.34 3.34 0 01-2.7 1.74zM163.1 21a3.84 3.84 0 01-1.51-3.22c0-2.53 2.46-6.67 4.48-6.67a1.36 1.36 0 011.34 1.54 4.33 4.33 0 01-.68 2.12zm73.08-1.78H236a2.1 2.1 0 00-2.09 2.11 2.34 2.34 0 00.34 1.2v.07c-1.68 2.87-5.75 2.33-3.63-1.37l2.7-4.69 1.68-2.92c2.5-4.24 5.92-2.57 3.76 1.13zM-.004 73.257l5.714-5.713 5.712 5.715-5.714 5.712zm352.023.026l5.714-5.713 5.713 5.715-5.715 5.712z" fill="#fff"/><path fill="#636466" d="M46.8 73.48h2.08v-8.32h3.27v-2.09H46.8v10.41zM61.69 75V62.32a4.56 4.56 0 00-2.56-4.07 4.46 4.46 0 01.48 2v12.68a4.47 4.47 0 01-1.66 3.51 5.2 5.2 0 011.66 3.69v14.1A4.63 4.63 0 0155 98.79H41.49v2.08h15.64a4.63 4.63 0 004.56-4.56v-14.1A5.19 5.19 0 0060 78.52 4.47 4.47 0 0061.69 75z"/><path fill="#636466" d="M46.8 91.34h2.08v-8.39h3.27v-2.08H46.8v10.47zm33.01 0h2.08V65.16h3.27v-2.09h-5.35v28.27z"/><path d="M92.14 58.25a4.46 4.46 0 01.48 2v34a4.63 4.63 0 01-4.56 4.56H77a4.5 4.5 0 01-2-.48 4.56 4.56 0 004.07 2.56h11.08a4.63 4.63 0 004.56-4.56v-34a4.57 4.57 0 00-2.57-4.08zm20.68 15.23h2.08v-8.32h3.28v-2.09h-5.36v10.41zm12.25 9.04a4.47 4.47 0 002.59-4.06V62.32a4.56 4.56 0 00-2.57-4.1 4.55 4.55 0 01.48 2v16.15a4.46 4.46 0 01-2.57 4.07l3.08 18.35h-5.68l.35 2.08h7.39zm-9.42-1.65h-2.83v17.92h-5.31v2.09h7.39V82.95h1.1l-.35-2.08zm29.19 10.47h2.09V65.16h3.27v-2.09h-5.36v28.27z" fill="#636466"/><path d="M157.18 58.25a4.45 4.45 0 01.48 2v34a4.63 4.63 0 01-4.56 4.56H142a4.49 4.49 0 01-2-.48 4.56 4.56 0 004.07 2.56h11.09a4.63 4.63 0 004.56-4.56v-34a4.57 4.57 0 00-2.54-4.08zm20.67 33.09h2.09V65.16h3.27v-2.09h-5.36v28.27z" fill="#636466"/><path d="M190.19 58.25a4.46 4.46 0 01.48 2v34a4.63 4.63 0 01-4.56 4.56h-13.56v2.08h15.64a4.63 4.63 0 004.56-4.56v-34a4.57 4.57 0 00-2.56-4.08zm21.05-.48v41.02h-5.31v2.09h7.39V57.77h-2.08zm32.88 0v41.02h-5.9l.59 2.09h7.4V57.77h-2.09zm-12.81 22.18v18.84h-5.3v2.09h7.39V87.19l-2.09-7.24zM263.58 83h6.11v-2.13h-8.19a4.51 4.51 0 01-2-.48 4.53 4.53 0 004.08 2.61zm2.83 2.73l-2.09.48v5.13h2.09v-5.61zm10.25-27.48a4.46 4.46 0 01.48 2V69l-5.37 1.24v2.56l7.45-1.73v-8.75a4.56 4.56 0 00-2.56-4.07z" fill="#636466"/><path d="M276.66 76.05a4.46 4.46 0 01.48 2v16.2a4.63 4.63 0 01-4.56 4.56h-11.09a4.5 4.5 0 01-2-.48 4.56 4.56 0 004.07 2.56h11.08a4.63 4.63 0 004.56-4.56V80.12a4.56 4.56 0 00-2.54-4.07zm-12.34-12.98v10.41h2.09v-8.32h3.27v-2.09h-5.36zm33.69 17.8h-.68v17.92h-5.3v2.09h7.39V85.35l-1.41-4.48zm15.14-23.1h-2.75l-6.23 19.41 6.9 21.61h-6.01l.58 1.84.06.25h7.45l-6.9-21.62 6.9-21.49zm17.38 0v41.02h-5.3v2.09h7.38V57.77h-2.08z" fill="#636466"/><path d="M167.9 123.85h1.41c5.43.28 9.69 1.73 12.39 4.72 2.74-3 7-4.46 12.46-4.72h1.35c12.11.82 17.63 9.5 27.3 13.19a11.12 11.12 0 004.79 1c2.48-.27 4.06-2.78 3.74-5.58-.34-3-3.28-5.61-6.56-4.17a4.32 4.32 0 00-1.17.8c-.25.23-.53.83-1.17.61-.6-.5 0-1.23.31-1.65a6 6 0 016.07-3c5.63.4 10.67 5.34 9.81 12.82C236.71 149 226.53 152 214.46 153h-3.93a48.28 48.28 0 01-28.77-11 49.07 49.07 0 01-28.9 11H149c-12.16-1.07-22.44-4-24.23-15.46-.68-8.16 4.18-12.17 9.82-12.58a6.11 6.11 0 016.14 3c.28.46.8 1.17.31 1.72-.61.11-.91-.37-1.17-.61a4 4 0 00-2.82-1.23c-3.86-.14-6.08 4.15-4.54 7.61a4.33 4.33 0 003.37 2.52 11.69 11.69 0 004.79-1 23.84 23.84 0 003.87-1.9c7.35-4.26 13.1-10.31 23.36-11.22z" fill="#fff"/><path fill="#636466" d="M361.634 82.906l5.713-5.714 2.086 2.085-5.713 5.715zM9.667 82.95l5.713-5.714 2.086 2.086-5.713 5.713z"/><path d="M55.65 69A4.47 4.47 0 0154 72.48a5.2 5.2 0 011.66 3.69v14.1a4.63 4.63 0 01-4.56 4.56H35.45V51.72h15.64a4.59 4.59 0 014.56 4.56zm-7.45-9.89h-5.36v10.41h5.36zm0 17.8h-5.36v10.47h5.36zm35.9-25.19a4.59 4.59 0 014.56 4.56v34a4.63 4.63 0 01-4.56 4.56H73a4.59 4.59 0 01-4.56-4.56v-34A4.55 4.55 0 0173 51.72h11.1zm-2.9 7.39h-5.35v28.27h5.36zm33.51 35.72l-3-17.92h-2.83v17.92h-7.39V51.72h15.64a4.53 4.53 0 014.5 4.56v16.14a4.47 4.47 0 01-2.63 4.06l3.08 18.35zm-.49-35.72h-5.36v10.41h5.36zm34.92-7.39a4.59 4.59 0 014.56 4.56v34a4.63 4.63 0 01-4.56 4.56h-11.08a4.59 4.59 0 01-4.56-4.56v-34a4.55 4.55 0 014.5-4.56h11.1zm-2.9 7.39h-5.36v28.27h5.36zm35.91-7.39a4.59 4.59 0 014.56 4.56v34a4.63 4.63 0 01-4.56 4.56h-15.64V51.72zm-2.89 7.39h-5.36v28.27h5.36zm20.63-7.39h7.39v43.11h-7.39zm40.28 0v43.11h-7.39L227.36 76v18.83H220V51.72h7.33l5.42 17.67V51.72zm28.45 17.8a4.59 4.59 0 014.56 4.56v16.2a4.63 4.63 0 01-4.56 4.56h-11.08a4.59 4.59 0 01-4.54-4.56v-8.87l7.39-1.72v7.7h5.36V76.91h-8.19a4.55 4.55 0 01-4.56-4.54V56.28a4.55 4.55 0 014.54-4.56h11.1a4.59 4.59 0 014.56 4.56V65l-7.45 1.73v-7.62h-5.36v10.41zm31.6 3.7l6.9 21.62h-7.45l-.06-.25-5.54-17.67h-.68v17.91H286V51.72h7.39v17.8h.61l5.67-17.8h7.51zm18.97-21.5h7.39v43.11h-7.39z" fill="#fff"/></svg><svg viewBox="0 0 15 15" id="lock" xmlns="http://www.w3.org/2000/svg"><path d="M11.25 6.56V3.75a3.75 3.75 0 10-7.5 0v2.81a1.88 1.88 0 00-1.88 1.88v4.69A1.87 1.87 0 003.75 15h7.5a1.88 1.88 0 001.88-1.88V8.44a1.88 1.88 0 00-1.88-1.87zM8 11.11v1.55a.47.47 0 01-.94 0v-1.55a.92.92 0 01-.47-.79.94.94 0 111.87 0 .92.92 0 01-.47.79zm1.37-4.55H5.63V3.75a1.87 1.87 0 113.75 0v2.81z"/></svg><svg viewBox="0 0 16 16" id="login" xmlns="http://www.w3.org/2000/svg"><path d="M7.31 9.06l-.08.07-1.43 1.46a1.24 1.24 0 00-.23.32 1.17 1.17 0 00.19 1.33 1.15 1.15 0 00.95.37 1.18 1.18 0 00.79-.37l1.85-1.86 1.72-1.72a1.15 1.15 0 00.19-.27 1.11 1.11 0 00.12-.6 1 1 0 00-.21-.58c-.14-.17-.29-.32-.44-.48L7.34 3.34a1.1 1.1 0 00-1-.28 1.12 1.12 0 00-.7.41 1.14 1.14 0 00-.27.67 1.19 1.19 0 00.39 1l1.5 1.5.08.08H2.1a1.21 1.21 0 00-.72.42 1.15 1.15 0 00-.24 1 1.12 1.12 0 00.39.62 1.14 1.14 0 00.78.29h5zM12.51 8v3.93a.59.59 0 01-.26.5.67.67 0 01-.41.11h-1.27a1.18 1.18 0 00-.66.42 1.17 1.17 0 00.21 1.67 1.1 1.1 0 00.69.24h1a6 6 0 00.64 0 2.32 2.32 0 00.73-.24 3 3 0 00.62-.42 3.14 3.14 0 00.71-.86 2.88 2.88 0 00.35-1.42v-8.2a2.51 2.51 0 00-.26-.9 3.05 3.05 0 00-.88-1.07 2.88 2.88 0 00-1.78-.62h-1.32a1.15 1.15 0 00-.65.37 1.12 1.12 0 00-.31.73 1.1 1.1 0 00.18.67 1.13 1.13 0 001 .56h1.18a.62.62 0 01.55.56v3.94z" fill="#fff"/><path d="M7.31 9.06h-5a1.14 1.14 0 01-.78-.29 1.12 1.12 0 01-.39-.62 1.15 1.15 0 01.24-1 1.21 1.21 0 01.72-.45h5.24l-.08-.08-1.5-1.5a1.19 1.19 0 01-.39-1 1.14 1.14 0 01.27-.67 1.12 1.12 0 01.7-.41 1.1 1.1 0 011 .28l3.39 3.38c.15.15.3.31.44.48a1 1 0 01.21.58 1.11 1.11 0 01-.12.6 1.15 1.15 0 01-.19.27l-1.72 1.75-1.84 1.86a1.18 1.18 0 01-.79.37 1.15 1.15 0 01-.95-.37 1.17 1.17 0 01-.19-1.33 1.24 1.24 0 01.23-.32l1.43-1.44.08-.07z" fill="#fff"/><path d="M12.51 8V4.06a.62.62 0 00-.51-.57h-1.18a1.13 1.13 0 01-1-.56 1.1 1.1 0 01-.18-.67 1.12 1.12 0 01.36-.75 1.15 1.15 0 01.65-.37h1.32a2.88 2.88 0 011.78.62 3.05 3.05 0 01.85 1.04 2.51 2.51 0 01.26.9v8.2a2.88 2.88 0 01-.35 1.42 3.14 3.14 0 01-.71.86 3 3 0 01-.62.42 2.32 2.32 0 01-.73.24 5.94 5.94 0 01-.64 0h-1a1.1 1.1 0 01-.69-.24 1.17 1.17 0 01-.21-1.6 1.18 1.18 0 01.66-.42h1.27a.67.67 0 00.41-.11.59.59 0 00.26-.5V8.04z" fill="#fff"/></svg><svg viewBox="0 0 111 24" id="logo" xmlns="http://www.w3.org/2000/svg"><path d="M13.93 8.17c5-1.67 5.34-7.88.45-7.88a5.06 5.06 0 00-4.06 2.88l-6.6 11.42A9.54 9.54 0 012.77 16 5.24 5.24 0 014 8.62L3 7.37c-5.14 3.28-3.63 12.75 5 12.75 7.26 0 10.66-8.81 5.93-11.95zM7.87 18.23a7.06 7.06 0 01-3.54-.85 12.72 12.72 0 001.23-1.75l4.13-7.15.66.07c5.76 1.21 3.47 9.68-2.48 9.68zM10.51 7l2-3.4c1.79-3.09 4.08-1.27 2.85 1C14.41 6.45 13 7 10.51 7z" fill="#fff"/><path d="M110.08 13.37l-.17.19a11.55 11.55 0 01-4.49 3.44c.4-.64.71-1.32 1-1.84l2.71-4.65c2.29-3.89-1.42-5.19-3.92-2.95l.5-.85h-2.46l-3.84 6.66-.17.19a5.29 5.29 0 01-3.71 1.82l2.32-4c1.49-2.57.12-5-2.2-5-1.89 0-3.35.76-4.77 3.21l-1.2 2.1-1 1.72-.13.15c-1.77 2.05-3.49 3.68-4.58 3.68-.54 0-.85-.38-.28-1.34l3.54-6.21c1.06-1.87 0-3.21-1.32-3.21a5 5 0 00-3.42 1.87l3.92-6.82H84L77.13 13.4l-.14.16A15.28 15.28 0 0174 16.22c.78-2.34.62-5.92 2.13-9.07l-1.85-1c-1 1.39-3.23 4.6-5.45 7.2l-.17.19c-1.77 2.05-3.49 3.68-4.58 3.68-.54 0-.85-.38-.28-1.34l2.46-4.3a2.51 2.51 0 00-.35-3.33l-1.34-1.63a1 1 0 01.14-1.42l-1.27-1.39C62 5.06 61.92 6.45 62.8 7.59l.21.28c-1.09 1.53-2.55 3.61-4.15 5.5l-.17.19c-1.77 2.05-4 3.68-5.76 3.68-1.51 0-2.41-.94-1.28-2.93l.24-.42c1.58.66 4.56.35 6.4-2.83l.35-.61c1.32-2.27 0-4-2-4a5.19 5.19 0 00-4.6 2.83l-2.34 4.11-.15.17a5.24 5.24 0 01-3.71 1.82l2.31-4a6 6 0 00.92-2.81 2.1 2.1 0 00-2.22-2.2 2.86 2.86 0 00-1.6.54l3.12-5.41h-2.5L39 13.41l-.13.15c-1.77 2.05-3.49 3.68-4.58 3.68-.54 0-.85-.38-.28-1.34l2.45-4.3a2.51 2.51 0 00-.35-3.33l-1.38-1.65a1 1 0 01.14-1.42L33.6 3.81c-1.39 1.25-1.51 2.64-.6 3.78l.21.28c-1.09 1.53-2.55 3.61-4.15 5.5l-.17.19c-1.77 2.05-3.49 3.68-4.58 3.68-.54 0-.85-.38-.28-1.34L28 9h-1.43A2.55 2.55 0 0024 6.48a5.45 5.45 0 00-4.2 2.83l-3.44 5.95c-1 1.82-.31 3.49 1.68 3.49a6 6 0 003.4-1.6 1.9 1.9 0 002.13 1.6c2 0 4.36-2.17 6.4-4.53C31.13 12.85 32 11.62 34 9l.32.4a1.21 1.21 0 01.14 1.39l-2.6 4.51c-1 1.82-.31 3.49 1.68 3.49 1.43 0 3-1.07 4.51-2.52a2.58 2.58 0 002.83 2.62 5.43 5.43 0 004.18-2.29 4.16 4.16 0 00.54 0 7.2 7.2 0 003.26-1c-.13 1.77 1.16 3.12 3.33 3.12 2.79 0 5.55-2.17 7.58-4.53 1.18-1.37 2.1-2.6 4.06-5.26l.33.4a1.21 1.21 0 01.14 1.39l-2.6 4.51c-1 1.82-.31 3.49 1.68 3.49s4.36-2.17 6.4-4.53c1.39-1.6 2.62-3.33 3.49-4.48-1 2.55-.45 7.13-2.78 7.13a1.37 1.37 0 01-1.16-.9l-1.53.8a2.67 2.67 0 002.68 2 6.65 6.65 0 00.68 0h.07A8.61 8.61 0 0075 17.06l-.84 1.47h2.48L80.38 12c3.78-4.74 5.46-4.13 4.39-2.31l-3.19 5.55c-1 1.81-.3 3.49 1.68 3.49 1.43 0 3-1.07 4.52-2.53 0 3.13 4.34 3.74 7 .38h.54A6.77 6.77 0 0098 16l-4.47 7.75H96l7.34-12.77c2.74-3.73 4.46-2.36 3.82-1.25l-3.71 6.42a1 1 0 01-1.77 0l-1.39.66a2.67 2.67 0 002.69 2h.14c3.56-.07 5.9-2.2 7.91-4.53a1.54 1.54 0 00-.95-.91zm-55.9-3.45c1.42-2.43 3.92-2 2.45.52l-.35.61c-1.18 2-2.76 2-3.68 1.63zm-31.46 3.87c-1.49 2.34-3 3.45-4 3.45-.54 0-.85-.38-.28-1.34l3.42-6c1.32-2.29 3.94-1.7 2.74.52zm18.48 3.35a.92.92 0 01-1-.94 2.76 2.76 0 01.43-1.27l.87-1.51A3.61 3.61 0 0043.06 16a2.3 2.3 0 01-1.86 1.14zm2.57-2.38a2.65 2.65 0 01-1-2.22c0-1.75 1.7-4.6 3.09-4.6A.94.94 0 0146.75 9a3 3 0 01-.47 1.46zm50.42-1.23h-.12A1.45 1.45 0 0092.63 15a1.62 1.62 0 00.24.83c-1.16 2-4 1.6-2.5-.94l1.87-3.23 1.18-2c1.72-2.93 4.08-1.77 2.6.78z" fill="#fff"/></svg><svg viewBox="0 0 15 15" id="user" xmlns="http://www.w3.org/2000/svg"><path d="M13.31 11.5a2.38 2.38 0 00-.87-1.24 11.26 11.26 0 00-2.7-1.15 3.6 3.6 0 01-.65-.28.76.76 0 01-.29-.52 2.59 2.59 0 010-.31 6.73 6.73 0 001.07-3.64 2.14 2.14 0 00-2.41-2.45A2.14 2.14 0 005 4.36a6.64 6.64 0 001.23 3.73v.21a.75.75 0 01-.29.52 3.57 3.57 0 01-.65.28 11.21 11.21 0 00-2.7 1.13 2.46 2.46 0 00-.87 1.27 5.12 5.12 0 00-.22 1.61h12.03a5.12 5.12 0 00-.22-1.61z"/></svg></svg>